# xmcd
#
# Track frame offsets:
#	150
#	19104
#	44416
#	75745
#	93298
#	114297
#	148432
#	175570
#	204548
#	233478
#	267004
#	288721
#
# Disc length: 4159 seconds
#
# Revision: 0
# Processed by: cddbd v1.5.2PL0 Copyright (c) Steve Scherf et al.
# Submitted via: EasyCDDAExtractor 11.5.0.1
#
DISCID=9f103d0c
DTITLE=Martha Scanlan and the Stuart Brothers - Live in Finland
DYEAR=1900
DGENRE=
TTITLE0=Chilly Winds
TTITLE1=Last Train to Glory
TTITLE2=Seeds of the Pine
TTITLE3=Lost Train
TTITLE4=Set Me Up High
TTITLE5=Get Right Church
TTITLE6=I Don't Even Have To Ask
TTITLE7=Walkin'
TTITLE8=The West Was Burning
TTITLE9=Isabella
TTITLE10=Like a Songbird That Has Fallen
TTITLE11=Over in the Glory Land
EXTD=
EXTT0=
EXTT1=
EXTT2=
EXTT3=
EXTT4=
EXTT5=
EXTT6=
EXTT7=
EXTT8=
EXTT9=
EXTT10=
EXTT11=
PLAYORDER=
